<svg width="31" height="32" viewBox="0 0 31 32" fill="none" xmlns="http://www.w3.org/2000/svg">
<path fill-rule="evenodd" clip-rule="evenodd" d="M13.1398 30.7548C12.7562 30.4507 12.447 30.064 12.2123 29.5946C11.8191 28.8082 11.4953 27.3163 11.2409 25.119C10.9865 22.8986 10.732 21.349 10.4776 20.47C9.87625 20.3544 9.34427 20.1231 8.88169 19.7762C8.44223 19.4061 8.2225 18.9666 8.2225 18.4578C8.2225 17.9258 8.45379 17.5442 8.91638 17.3129C9.4021 17.0816 9.94564 16.9659 10.547 16.9659C11.1715 16.9659 11.7266 17.1163 12.2123 17.417C12.8599 16.885 13.3804 16.2605 13.7736 15.5435C14.1899 14.8033 14.398 13.8203 14.398 12.5945C14.398 11.3455 13.9817 10.3509 13.1491 9.61079C12.3164 8.87065 11.0905 8.50058 9.47148 8.50058C7.87556 8.50058 6.6497 8.62779 5.79391 8.88221C4.93812 9.13663 4.19798 9.41419 3.57349 9.71487C2.97213 10.0156 2.42859 10.2931 1.94287 10.5475C1.48028 10.802 1.04082 10.9292 0.624493 10.9292C0.208164 10.9292 0 10.802 0 10.5475C0 10.27 0.219729 9.83052 0.659188 9.22915C1.09865 8.62779 1.74627 8.02642 2.60206 7.42506C4.75309 5.92165 7.18168 5.18151 9.88781 5.20464C12.594 5.20464 14.8259 5.71349 16.5838 6.73118C18.6423 7.93391 19.6715 9.738 19.6715 12.1435C19.6947 14.1326 19.1743 15.7863 18.1103 17.1047C17.0464 18.4231 15.728 19.3714 14.1552 19.9496C14.5021 20.7129 14.7797 21.534 14.9878 22.4129C15.2191 23.2918 15.4389 24.1013 15.647 24.8415C15.8552 25.5816 16.0865 26.1946 16.3409 26.6803C16.4119 26.8045 16.4859 26.9128 16.563 27.0053L16.9709 26.5585C17.2385 26.2653 17.7268 26.4561 17.7248 26.8531L17.7029 31.1559C17.7017 31.3784 17.5323 31.564 17.3108 31.5853L13.0278 31.9978C12.6326 32.0359 12.3983 31.5669 12.666 31.2737L13.1398 30.7548ZM8.04903 11.7965C8.04903 11.0101 7.89869 10.6169 7.598 10.6169C7.08916 10.6169 6.61501 10.802 6.17555 11.172C5.73609 11.5421 5.40071 11.9006 5.16942 12.2475C4.03608 14.0285 2.949 16.619 1.90817 20.019C0.867352 23.419 0.346941 26.2408 0.346941 28.4844C0.346941 30.7048 0.832658 31.815 1.80409 31.815C2.31294 31.815 2.76396 31.7225 3.15716 31.5374C3.57349 31.3524 4.00138 31.1558 4.44084 30.9476C5.38915 30.4851 5.8633 29.6293 5.8633 28.3803V23.2803C5.8633 22.7483 6.27963 20.9095 7.11229 17.7639C7.4361 16.6074 7.70209 15.3584 7.91025 14.0169C8.00277 13.3231 8.04903 12.5829 8.04903 11.7965Z" fill="url(#paint0_linear_122_172)"/>
<path d="M22.7176 3.35105L20.7187 6.1416C20.4537 6.51165 20.1042 6.86913 19.7471 7.13541C19.3901 7.4017 19.0547 7.55496 18.8148 7.56148C18.5749 7.56801 18.4502 7.42727 18.468 7.17022C18.4858 6.91317 18.6447 6.56087 18.9098 6.19082L20.9086 3.40027C21.1737 3.03022 21.5232 2.67274 21.8803 2.40645C22.2373 2.14017 22.5727 1.98691 22.8126 1.98038C23.0524 1.97386 23.1772 2.1146 23.1594 2.37165C23.1416 2.6287 22.9827 2.981 22.7176 3.35105Z" fill="url(#paint1_linear_122_172)"/>
<path d="M26.4901 6.17236L22.6848 8.22399C22.1801 8.49605 21.6677 8.70378 21.2603 8.80149C20.8529 8.89919 20.5837 8.87887 20.5122 8.74498C20.4406 8.61109 20.5724 8.37461 20.8786 8.08756C21.1847 7.80052 21.6403 7.48641 22.1449 7.21435L25.9502 5.16272C26.4548 4.89066 26.9672 4.68292 27.3747 4.58522C27.7821 4.48751 28.0512 4.50784 28.1228 4.64173C28.1944 4.77561 28.0626 5.01209 27.7564 5.29914C27.4502 5.58619 26.9947 5.9003 26.4901 6.17236Z" fill="url(#paint2_linear_122_172)"/>
<path d="M25.2067 11.349L21.7773 11.4938C21.3225 11.513 20.9407 11.4531 20.7159 11.3272C20.4911 11.2014 20.4416 11.0199 20.5784 10.8227C20.7152 10.6256 21.0271 10.4289 21.4454 10.2759C21.8637 10.1229 22.3542 10.0261 22.809 10.0069L26.2384 9.8622C26.6932 9.84301 27.075 9.90293 27.2998 10.0288C27.5246 10.1546 27.5741 10.3361 27.4373 10.5333C27.3005 10.7304 26.9886 10.9271 26.5703 11.0801C26.152 11.2331 25.6615 11.3298 25.2067 11.349Z" fill="url(#paint3_linear_122_172)"/>
<defs>
<linearGradient id="paint0_linear_122_172" x1="1.39583e-09" y1="8.67352" x2="17.1302" y2="31.2247" gradientUnits="userSpaceOnUse">
<stop stop-color="#406CA8"/>
<stop offset="0.841423" stop-color="#0E184E"/>
</linearGradient>
<linearGradient id="paint1_linear_122_172" x1="19.1363" y1="7.14392" x2="18.9193" y2="1.47238" gradientUnits="userSpaceOnUse">
<stop stop-color="#1D79FD"/>
<stop offset="1" stop-color="#101C52"/>
</linearGradient>
<linearGradient id="paint2_linear_122_172" x1="21.0875" y1="8.45117" x2="28.9418" y2="3.96631" gradientUnits="userSpaceOnUse">
<stop stop-color="#1D79FD"/>
<stop offset="1" stop-color="#101C52"/>
</linearGradient>
<linearGradient id="paint3_linear_122_172" x1="21.0778" y1="10.8199" x2="25.8567" y2="14.057" gradientUnits="userSpaceOnUse">
<stop stop-color="#1D79FD"/>
<stop offset="1" stop-color="#101C52"/>
</linearGradient>
</defs>
</svg>
